<svg width="30" height="36" viewBox="0 0 30 36" fill="none" xmlns="http://www.w3.org/2000/svg">
<path d="M28.7658 9.04665C28.0094 7.30242 26.9188 5.72316 25.5555 4.39799C24.1878 3.06084 22.5754 1.99956 20.8064 1.27209C18.9663 0.5087 17.0136 0.122986 15.0006 0.122986C12.9877 0.122986 11.035 0.5087 9.19483 1.26808C7.41491 2.00334 5.81982 3.05602 4.44572 4.39397C3.08335 5.71988 1.99288 7.29896 1.23545 9.04263C0.451967 10.8507 0.0541992 12.7712 0.0541992 14.748C0.0541992 17.5846 0.733217 20.4091 2.06715 23.1333C3.13991 25.323 4.63857 27.4565 6.52697 29.4855C9.75331 32.9489 13.1363 35.0663 14.0966 35.6328C14.3692 35.7938 14.6801 35.8784 14.9966 35.8779C15.31 35.8779 15.6194 35.7975 15.8966 35.6328C16.8569 35.0663 20.2399 32.9489 23.4663 29.4855C25.3546 27.4605 26.8533 25.323 27.9261 23.1333C29.268 20.4132 29.9471 17.5926 29.9471 14.752C29.9471 12.7752 29.5493 10.8547 28.7658 9.04665ZM15.0006 32.7962C12.3529 31.1127 2.94706 24.4471 2.94706 14.752C2.94706 11.6221 4.19661 8.68102 6.4667 6.46316C8.74483 4.24129 11.7743 3.01584 15.0006 3.01584C18.227 3.01584 21.2564 4.24129 23.5346 6.46718C25.8046 8.68102 27.0542 11.6221 27.0542 14.752C27.0542 24.4471 17.6484 31.1127 15.0006 32.7962ZM15.0006 7.99799C11.0953 7.99799 7.9292 11.1641 7.9292 15.0694C7.9292 18.9748 11.0953 22.1408 15.0006 22.1408C18.906 22.1408 22.0721 18.9748 22.0721 15.0694C22.0721 11.1641 18.906 7.99799 15.0006 7.99799ZM18.1828 18.2516C17.7654 18.6701 17.2694 19.002 16.7233 19.2282C16.1772 19.4544 15.5917 19.5703 15.0006 19.5694C13.7993 19.5694 12.6703 19.0993 11.8185 18.2516C11.3999 17.8342 11.068 17.3382 10.8418 16.7921C10.6157 16.246 10.4997 15.6605 10.5006 15.0694C10.5006 13.8681 10.9707 12.7391 11.8185 11.8873C12.6703 11.0355 13.7993 10.5694 15.0006 10.5694C16.202 10.5694 17.331 11.0355 18.1828 11.8873C19.0346 12.7391 19.5006 13.8681 19.5006 15.0694C19.5006 16.2708 19.0346 17.3998 18.1828 18.2516Z" fill="#2188FF"/>
</svg>
