<svg width="30" height="30" viewBox="0 0 30 30" fill="none" xmlns="http://www.w3.org/2000/svg">
<path fill-rule="evenodd" clip-rule="evenodd" d="M16.5644 17.1346C16.6247 16.3533 17.2763 15.75 18.06 15.75H27.69C28.4737 15.75 29.1253 16.3533 29.1856 17.1346L29.9956 27.6346C30.0277 28.0513 29.8846 28.4624 29.6007 28.7691C29.3168 29.0757 28.9179 29.25 28.5 29.25H17.25C16.8321 29.25 16.4332 29.0757 16.1493 28.7691C15.8654 28.4624 15.7223 28.0513 15.7544 27.6346L16.5644 17.1346ZM19.4487 18.75L18.8702 26.25H26.8798L26.3013 18.75H19.4487Z" fill="#FFFFFF"/>
<path fill-rule="evenodd" clip-rule="evenodd" d="M0.814448 17.1346C0.874724 16.3533 1.52633 15.75 2.31 15.75H11.94C12.7237 15.75 13.3753 16.3533 13.4356 17.1346L14.2456 27.6346C14.2777 28.0513 14.1346 28.4624 13.8507 28.7691C13.5668 29.0757 13.1679 29.25 12.75 29.25H1.5C1.08213 29.25 0.6832 29.0757 0.39931 28.7691C0.11542 28.4624 -0.0276927 28.0513 0.00444774 27.6346L0.814448 17.1346ZM3.69875 18.75L3.12018 26.25H11.1298L10.5513 18.75H3.69875Z" fill="#FFFFFF"/>
<path fill-rule="evenodd" clip-rule="evenodd" d="M8.68945 2.13463C8.74972 1.35327 9.40133 0.75 10.185 0.75H19.815C20.5987 0.75 21.2503 1.35327 21.3106 2.13463L22.1206 12.6346C22.1527 13.0513 22.0096 13.4624 21.7257 13.7691C21.4418 14.0757 21.0429 14.25 20.625 14.25H9.375C8.95713 14.25 8.5582 14.0757 8.27431 13.7691C7.99042 13.4624 7.84731 13.0513 7.87945 12.6346L8.68945 2.13463ZM11.5737 3.75L10.9952 11.25H19.0048L18.4263 3.75H11.5737Z" fill="#FFFFFF"/>
</svg>
